<svg width="18" height="18" viewBox="0 0 18 18" fill="none" xmlns="http://www.w3.org/2000/svg">
<path fill-rule="evenodd" clip-rule="evenodd" d="M13.0901 7.36301C13.0901 8.11509 12.9419 8.85982 12.6541 9.55466C12.3663 10.2495 11.9445 10.8808 11.4126 11.4126C10.8808 11.9445 10.2495 12.3663 9.55466 12.6541C8.85982 12.9419 8.11509 13.0901 7.36301 13.0901C6.61092 13.0901 5.8662 12.9419 5.17136 12.6541C4.47652 12.3663 3.84517 11.9445 3.31337 11.4126C2.78156 10.8808 2.35971 10.2495 2.0719 9.55466C1.78408 8.85982 1.63595 8.11509 1.63595 7.36301C1.63595 5.8441 2.23934 4.3874 3.31337 3.31337C4.3874 2.23934 5.8441 1.63595 7.36301 1.63595C8.88192 1.63595 10.3386 2.23934 11.4126 3.31337C12.4867 4.3874 13.0901 5.8441 13.0901 7.36301ZM11.9594 13.1162C10.489 14.2909 8.6247 14.858 6.74928 14.7011C4.87387 14.5441 3.12974 13.675 1.87508 12.2723C0.620422 10.8696 -0.049516 9.0397 0.00285439 7.15846C0.0552247 5.27722 0.825928 3.48743 2.15668 2.15668C3.48743 0.825928 5.27722 0.0552247 7.15846 0.00285439C9.0397 -0.049516 10.8696 0.620422 12.2723 1.87508C13.675 3.12974 14.5441 4.87387 14.7011 6.74928C14.858 8.6247 14.2909 10.489 13.1162 11.9594L17.7601 16.6016C17.8361 16.6776 17.8965 16.7679 17.9376 16.8673C17.9788 16.9667 18 17.0732 18 17.1808C18 17.2884 17.9788 17.3949 17.9376 17.4943C17.8965 17.5937 17.8361 17.684 17.7601 17.7601C17.684 17.8361 17.5937 17.8965 17.4943 17.9376C17.3949 17.9788 17.2884 18 17.1808 18C17.0732 18 16.9667 17.9788 16.8673 17.9376C16.7679 17.8965 16.6776 17.8361 16.6016 17.7601L11.961 13.1162H11.9594Z" fill="black"/>
</svg>
